<svg width="40" height="40" viewBox="0 0 40 40" fill="none" xmlns="http://www.w3.org/2000/svg">
<g id="diet 1">
<g id="Group">
<g id="Group_2">
<path id="Vector" d="M15.4659 15.5365C15.129 15.1676 14.6492 14.9516 14.1498 14.9439C13.1452 14.931 12.3141 15.7319 12.2971 16.7357C12.2916 17.0593 12.5495 17.3261 12.873 17.3315C12.8764 17.3316 12.8797 17.3316 12.8831 17.3316C13.2021 17.3316 13.4634 17.0757 13.4688 16.7555C13.4748 16.397 13.7695 16.1093 14.1314 16.1156C14.3121 16.1184 14.4788 16.1934 14.6007 16.3268C14.819 16.5658 15.1897 16.5825 15.4285 16.3643C15.6674 16.1461 15.6842 15.7754 15.4659 15.5365Z" fill="#333333"/>
</g>
</g>
<g id="Group_3">
<g id="Group_4">
<path id="Vector_2" d="M18.5833 17.446C18.4037 17.0238 18.0541 16.6906 17.6238 16.5318C16.7587 16.2126 15.7942 16.6561 15.4737 17.5203C15.3611 17.8237 15.5159 18.1609 15.8192 18.2735C15.8864 18.2984 15.9553 18.3102 16.0229 18.3102C16.261 18.3102 16.4847 18.1641 16.5724 17.9278C16.6686 17.6683 16.9587 17.5355 17.2181 17.6312C17.3485 17.6793 17.4503 17.7764 17.5048 17.9046C17.6314 18.2023 17.9756 18.3412 18.2733 18.2145C18.5712 18.0878 18.7099 17.7438 18.5833 17.446Z" fill="#333333"/>
</g>
</g>
<g id="Group_5">
<g id="Group_6">
<path id="Vector_3" d="M22.3597 12.2565C22.1307 12.0279 21.7597 12.0283 21.5312 12.2574L20.9788 12.8108C20.7502 13.0399 20.7506 13.4109 20.9797 13.6394C21.094 13.7536 21.2437 13.8106 21.3935 13.8106C21.5437 13.8106 21.6938 13.7533 21.8083 13.6386L22.3606 13.0851C22.5892 12.8561 22.5888 12.4851 22.3597 12.2565Z" fill="#333333"/>
</g>
</g>
<g id="Group_7">
<g id="Group_8">
<path id="Vector_4" d="M18.7144 19.8209H17.9334C17.6098 19.8209 17.3475 20.0833 17.3475 20.4069C17.3475 20.7305 17.6098 20.9928 17.9334 20.9928H18.7144C19.038 20.9928 19.3003 20.7305 19.3003 20.4069C19.3003 20.0833 19.038 19.8209 18.7144 19.8209Z" fill="#333333"/>
</g>
</g>
<g id="Group_9">
<g id="Group_10">
<path id="Vector_5" d="M24.7022 19.8209H23.9211C23.5975 19.8209 23.3352 20.0833 23.3352 20.4069C23.3352 20.7305 23.5975 20.9928 23.9211 20.9928H24.7022C25.0257 20.9928 25.2881 20.7305 25.2881 20.4069C25.2881 20.0833 25.0257 19.8209 24.7022 19.8209Z" fill="#333333"/>
</g>
</g>
<g id="Group_11">
<g id="Group_12">
<path id="Vector_6" d="M39.9812 30.386L39.8286 29.5624C39.7313 29.0362 39.2718 28.6542 38.7359 28.6542C38.6687 28.6542 38.6009 28.6604 38.5341 28.6727L35.4279 29.2433L36.8346 28.3029C37.2033 28.0565 37.3896 27.6157 37.3092 27.1785C37.2869 27.0587 37.245 26.9438 37.1844 26.8362L36.7587 26.0824C36.6128 25.8234 36.3641 25.631 36.077 25.5547C35.9363 25.5172 35.7893 25.5089 35.6459 25.5275C35.8025 24.663 35.8833 23.78 35.8833 22.8812C35.8833 22.4824 35.6435 22.1392 35.3009 21.9868C35.7485 20.9221 35.7791 19.7032 35.3366 18.5869C35.3007 18.4961 35.2474 18.4151 35.1785 18.3461C35.11 18.2776 35.0299 18.2247 34.9391 18.1883C34.4088 17.9771 33.8516 17.8701 33.2828 17.8701C33.21 17.8701 33.1376 17.8719 33.0654 17.8754C32.9842 16.24 31.6307 14.9344 29.9784 14.9344C29.7608 14.9344 29.5486 14.9576 29.3437 15.0007C29.4861 14.1491 29.4022 13.2583 29.0706 12.4219C29.035 12.3299 28.9814 12.2474 28.9087 12.1735C28.8387 12.1035 28.7566 12.0495 28.6655 12.0134C28.0943 11.7859 27.494 11.6705 26.8812 11.6705C25.9581 11.6705 25.0751 11.9301 24.3127 12.4126C24.0342 11.6058 23.5749 10.8484 22.9332 10.2052C22.7452 10.0169 22.4952 9.91313 22.2292 9.91313C21.9632 9.91313 21.7132 10.0169 21.525 10.2053L18.6881 13.0487C18.1631 12.5805 17.4722 12.3005 16.7224 12.3005C16.5522 12.3005 16.3804 12.3155 16.2117 12.3448C15.6006 12.4512 15.0381 12.7504 14.607 13.1885C14.0541 12.9217 13.4207 12.8307 12.8121 12.9366C12.6782 12.9599 12.5482 12.9927 12.4221 13.0327V10.8416C12.4221 9.33274 11.2094 8.10298 9.70926 8.07705V6.8344C10.1685 6.75494 10.5191 6.35471 10.5191 5.87315V3.05761C10.5191 2.51918 10.0811 2.08105 9.54254 2.08105H4.77764C4.23912 2.08105 3.80108 2.51918 3.80108 3.05761V5.87315C3.80108 6.35471 4.1517 6.75494 4.61092 6.8344V8.07689C3.11077 8.10275 1.89812 9.33251 1.89812 10.8415V27.9427C0.728278 28.9991 0 30.4733 0 32.1034C0 35.3101 2.81444 37.919 6.27396 37.919L29.726 37.9122C30.5264 37.9118 31.2793 37.5601 31.7913 36.9471C32.29 36.3504 32.502 35.5753 32.3799 34.8109L37.064 35.6527C37.1288 35.6644 37.1952 35.6703 37.2611 35.6703C37.4947 35.6703 37.7185 35.5986 37.9081 35.4631C38.1517 35.289 38.3166 35.0196 38.3606 34.724L38.4875 33.8727C38.5058 33.7508 38.5038 33.628 38.4815 33.5076C38.4009 33.0723 38.0694 32.7269 37.637 32.6278L35.986 32.2491L39.0891 31.679C39.3818 31.6252 39.6357 31.4609 39.8041 31.2163C39.9723 30.9723 40.0351 30.6775 39.9812 30.386ZM33.2828 19.0418C33.6355 19.0418 33.9823 19.0976 34.3157 19.2077C34.6137 20.115 34.5021 21.0937 34.0356 21.9021H32.4571L32.9608 21.3973C33.1894 21.1682 33.1889 20.7972 32.9598 20.5686C32.7307 20.34 32.3596 20.3404 32.1312 20.5696L31.8647 20.8367C31.7398 20.4254 31.5217 20.0571 31.235 19.755C31.8165 19.2932 32.5304 19.0418 33.2828 19.0418ZM29.9784 16.1062C31.0366 16.1062 31.8975 16.9696 31.8975 18.0309C31.8975 18.0506 31.8965 18.0701 31.896 18.0896C31.2783 18.2904 30.709 18.626 30.2235 19.0817C30.1462 19.0524 30.0679 19.0252 29.9874 19.0029C29.816 18.077 29.192 17.3348 28.3677 16.9882C28.7098 16.4582 29.3034 16.1062 29.9784 16.1062ZM26.8811 12.8423C27.2791 12.8423 27.6702 12.9066 28.0471 13.034C28.35 13.9346 28.2881 14.902 27.9022 15.74C27.5849 16.029 27.3275 16.3829 27.1515 16.7807C27.0469 16.7868 26.9423 16.7983 26.839 16.8163C26.3798 16.8962 25.9517 17.0954 25.5934 17.3844C25.4712 17.1609 25.3216 16.9547 25.1502 16.7691L26.4939 15.4224C26.7225 15.1933 26.722 14.8223 26.4929 14.5938C26.2638 14.3652 25.8928 14.3656 25.6642 14.5948L24.1956 16.0667C23.9162 15.9346 23.6141 15.8427 23.2967 15.7998C23.4338 15.1005 23.7731 14.4417 24.298 13.9156C24.9885 13.2234 25.9059 12.8423 26.8811 12.8423ZM22.3913 21.9021H21.8834C21.7979 21.6845 21.5864 21.5302 21.3384 21.5302C21.0903 21.5302 20.8788 21.6846 20.7933 21.9021H20.1958C20.3345 21.6762 20.3065 21.3768 20.1106 21.1814C19.8816 20.9528 19.5105 20.9532 19.282 21.1822L18.7297 21.7357C18.6801 21.7854 18.642 21.842 18.6139 21.9021H17.4213C16.9747 21.2168 16.7021 20.4078 16.6699 19.5375H25.9656C25.9333 20.4078 25.6608 21.2168 25.2141 21.9021H23.9731C23.9451 21.842 23.9069 21.7853 23.8573 21.7356L23.3051 21.1821C23.0765 20.9532 22.7056 20.9525 22.4766 21.1812C22.2805 21.3767 22.2525 21.6761 22.3913 21.9021ZM21.0286 18.3656C21.2494 17.5471 21.9961 16.9431 22.8809 16.9431C23.7658 16.9431 24.5125 17.5472 24.7333 18.3656H21.0286ZM22.2268 11.1609C22.7841 11.7632 23.1526 12.4784 23.3333 13.2301C23.0342 13.5552 22.7857 13.9144 22.5897 14.2966C22.5007 14.2421 22.3964 14.2101 22.2844 14.2101H21.5037C21.1801 14.2101 20.9177 14.4725 20.9177 14.7961C20.9177 15.1197 21.1801 15.382 21.5037 15.382H22.1886C22.1501 15.5438 22.1201 15.7076 22.0984 15.8726C21.8658 15.9337 21.6436 16.0207 21.4356 16.1315C21.0451 15.4575 20.3984 14.9552 19.6321 14.7537C19.6319 14.7521 19.6316 14.7505 19.6313 14.7488C19.5853 14.4837 19.5052 14.2321 19.3959 13.9983L22.2268 11.1609ZM11.6348 16.448C11.6004 16.3519 11.5744 16.2533 11.5573 16.1544C11.3893 15.1856 12.0424 14.26 13.0129 14.091C13.1153 14.0732 13.2192 14.0641 13.3219 14.0641C13.7079 14.0641 14.0768 14.1873 14.3886 14.4201C14.5176 14.5166 14.6807 14.5555 14.8395 14.528C14.9982 14.5005 15.1386 14.4088 15.2277 14.2745C15.5028 13.8596 15.9236 13.5843 16.4127 13.4991C16.5152 13.4812 16.6195 13.4723 16.7224 13.4723C17.5905 13.4723 18.3283 14.0934 18.4766 14.9492C18.4936 15.0473 18.5023 15.1494 18.5025 15.253C18.5031 15.5562 18.735 15.809 19.0372 15.8356C19.6923 15.8932 20.2499 16.3055 20.5084 16.8862C20.1623 17.3016 19.9224 17.8088 19.8313 18.3656H16.4898C16.0743 18.3656 15.7178 18.6221 15.5692 18.9851C14.834 18.4843 13.9676 18.2146 13.0596 18.2146C12.4908 18.2146 11.9335 18.3217 11.4029 18.5329C11.3129 18.5689 11.2325 18.6219 11.1639 18.6905C11.0943 18.76 11.041 18.8415 11.006 18.9309C10.8711 19.271 10.7812 19.6206 10.7326 19.9724C10.5226 19.7333 10.3746 19.4361 10.3168 19.1025C10.179 18.3075 10.5952 17.5159 11.3285 17.1775C11.6042 17.0503 11.7371 16.7337 11.6348 16.448ZM13.3815 21.7419L13.5414 21.9021H12.1341C11.8182 21.1692 11.7702 20.3349 12.0267 19.5524C12.3606 19.4422 12.7072 19.3864 13.0596 19.3864C13.9425 19.3864 14.7731 19.7315 15.3981 20.3579C15.4813 20.4413 15.5587 20.5286 15.6314 20.6189C15.7307 21.0684 15.8833 21.4979 16.0799 21.9021H15.1968L14.2111 20.9141C13.9824 20.6851 13.6114 20.6845 13.3825 20.9132C13.1534 21.1418 13.1529 21.5129 13.3815 21.7419ZM10.8862 21.9021H8.79739C8.89051 21.3346 9.23192 20.8507 9.70582 20.5654C9.98637 20.9413 10.3525 21.2452 10.7744 21.4511C10.8043 21.6031 10.8409 21.7538 10.8862 21.9021ZM4.97295 3.25293H9.34723V5.67784H4.97295V3.25293ZM8.53739 6.84971V8.07572H5.78287V6.84971H8.53739ZM3.07007 13.2177H6.87497C7.19864 13.2177 7.46091 12.9554 7.46091 12.6318C7.46091 12.3082 7.19864 12.0459 6.87497 12.0459H3.07007V10.8415C3.07007 9.96259 3.78288 9.24759 4.65904 9.24759H9.66121C10.5375 9.24759 11.2503 9.96259 11.2503 10.8415V12.0459H10.1562C9.83254 12.0459 9.57028 12.3082 9.57028 12.6318C9.57028 12.9554 9.83254 13.2177 10.1562 13.2177H11.2503V13.7378C10.5789 14.396 10.2303 15.3612 10.4025 16.3541C10.4028 16.3561 10.4032 16.3581 10.4035 16.3601C9.46348 17.0051 8.96262 18.1516 9.16207 19.3026C9.17371 19.3698 9.18832 19.4359 9.20426 19.5013C8.91153 19.6627 8.64864 19.8711 8.42333 20.115H3.07007V13.2177ZM3.06999 21.2868H7.74294C7.68075 21.4843 7.63685 21.6899 7.61544 21.9021H7.51669C6.97739 21.9021 6.53857 22.3413 6.53857 22.8811C6.53857 23.8114 6.62505 24.7248 6.79263 25.6184C6.62427 25.6049 6.45162 25.5976 6.27599 25.5976C5.5674 25.5976 4.89225 25.71 4.37514 25.9142C3.58413 26.2266 3.36546 26.6701 3.31772 26.977C3.23389 27.0187 3.15155 27.0628 3.06999 27.1078V21.2868ZM10.4896 28.4849C10.7006 28.6537 10.8296 28.7972 10.9043 28.9007C10.8973 28.9008 10.89 28.9009 10.8825 28.9009C10.5509 28.9009 9.95504 28.7672 9.27746 28.3921C9.0252 28.2524 8.79278 28.0945 8.60528 27.9356C8.38669 27.7504 8.06614 27.7506 7.8477 27.9357C7.6602 28.0947 7.42786 28.2525 7.17583 28.392C6.4981 28.7672 5.90224 28.9009 5.57068 28.9009C5.5631 28.9009 5.55584 28.9008 5.54873 28.9007C5.62342 28.7972 5.7524 28.6536 5.96349 28.4847C6.14794 28.337 6.22568 28.093 6.1606 27.8659C6.09545 27.6387 5.90029 27.4728 5.66552 27.4453C5.09373 27.3783 4.73217 27.2328 4.56287 27.1268C4.77498 26.9947 5.31123 26.7695 6.27623 26.7695C7.07544 26.7695 7.65958 26.9375 7.93973 27.0949C8.11794 27.1949 8.3352 27.1949 8.5134 27.0949C8.79372 26.9376 9.37793 26.7696 10.1771 26.7696C11.1422 26.7696 11.6784 26.9949 11.8904 27.1269C11.7212 27.2329 11.3596 27.3784 10.7876 27.4454C10.5528 27.473 10.3576 27.6388 10.2925 27.866C10.2272 28.0932 10.305 28.3373 10.4896 28.4849ZM9.31746 35.6165L9.33762 35.7251C9.40731 36.1015 9.55426 36.4469 9.75957 36.7472H6.27396C3.46069 36.7472 1.17187 34.664 1.17187 32.1034C1.17187 30.3535 2.24124 28.8273 3.81592 28.0359C3.99678 28.1709 4.22225 28.2873 4.48975 28.3812C4.38366 28.5624 4.30975 28.7572 4.29233 28.9604C4.2692 29.2306 4.35186 29.4871 4.52529 29.6829C4.75443 29.9416 5.10615 30.0728 5.57068 30.0728C6.18974 30.0728 7.002 29.8277 7.74341 29.4173C7.91411 29.3228 8.07552 29.2231 8.22661 29.1188C8.37762 29.223 8.53903 29.3227 8.70981 29.4174C9.45121 29.8277 10.2635 30.0727 10.8825 30.0728H10.8826C11.347 30.0728 11.6987 29.9416 11.9278 29.683C12.1013 29.4872 12.184 29.2306 12.1608 28.9604C12.1434 28.7572 12.0695 28.5624 11.9634 28.3812C12.2309 28.2872 12.4564 28.1708 12.6373 28.0359C13.8861 28.6635 14.8167 29.7534 15.1485 31.0505L11.0043 32.6248C9.79129 33.0858 9.08184 34.3439 9.31746 35.6165ZM30.8919 36.1958C30.603 36.5417 30.1778 36.7401 29.7254 36.7403L29.1104 36.7405L28.7262 34.6659C28.6672 34.3477 28.3617 34.1373 28.0433 34.1965C27.7252 34.2554 27.515 34.5611 27.5739 34.8793L27.9187 36.7409L25.9026 36.7417L25.6429 35.3388C25.5839 35.0206 25.2783 34.8105 24.96 34.8694C24.6419 34.9283 24.4316 35.234 24.4905 35.5522L24.7108 36.7422L20.0214 36.744L19.6684 34.8387C19.6094 34.5205 19.3039 34.3103 18.9856 34.3693C18.6673 34.4282 18.4572 34.734 18.5161 35.0522L18.8296 36.7444L11.9825 36.7471C11.9823 36.7471 11.9821 36.7471 11.982 36.7471C11.2498 36.7471 10.6223 36.2276 10.4896 35.5115L10.4695 35.4029C10.3371 34.6876 10.7369 33.98 11.4203 33.7203L13.7231 32.8455L13.8947 33.7714C13.947 34.0535 14.1932 34.2507 14.4701 34.2507C14.5056 34.2507 14.5415 34.2474 14.5776 34.2408C14.8957 34.1818 15.1059 33.8761 15.0469 33.5579L14.8365 32.4225L18.2549 31.1239C18.5573 31.009 18.7095 30.6706 18.5945 30.3681C18.4796 30.0655 18.1408 29.9134 17.8388 30.0284L16.2481 30.6327C15.8018 29.0527 14.6554 27.733 13.1352 26.9769C13.0874 26.67 12.8688 26.2265 12.0778 25.9142C11.5607 25.7099 10.8856 25.5975 10.177 25.5975C9.68934 25.5975 9.22364 25.6514 8.81254 25.7494V25.3955C8.81254 25.0719 8.55028 24.8096 8.22661 24.8096C8.08981 24.8096 7.96434 24.8567 7.86458 24.9353C7.77216 24.3242 7.72044 23.7034 7.71184 23.0739H26.7968C27.1204 23.0739 27.3827 22.8115 27.3827 22.4879C27.3827 22.1643 27.1204 21.902 26.7968 21.902H26.557C26.9301 21.1336 27.1409 20.272 27.1409 19.3615C27.1409 18.8445 26.7454 18.4186 26.2413 18.3703C26.4608 18.1633 26.7347 18.0238 27.04 17.9706C27.1294 17.9551 27.2202 17.9472 27.3099 17.9472C28.0664 17.9472 28.7092 18.4883 28.8383 19.2338C28.8532 19.3201 28.8609 19.4092 28.861 19.4986C28.8614 19.8021 29.0934 20.055 29.3957 20.0816C30.0959 20.1431 30.6688 20.6697 30.7889 21.3622C30.8207 21.5464 30.8168 21.7281 30.7848 21.902H30.1561C29.8325 21.902 29.5702 22.1643 29.5702 22.4879C29.5702 22.8115 29.8325 23.0739 30.1561 23.0739H34.7102C34.6956 24.1487 34.5572 25.1986 34.299 26.2173L31.1236 28.0918C30.9293 27.4159 30.4779 26.8425 29.856 26.4944C29.1584 26.104 28.3294 26.043 27.5818 26.327L21.0419 28.8115C20.7393 28.9264 20.5873 29.2649 20.7022 29.5674C20.8171 29.8699 21.1559 30.0218 21.458 29.907L22.3195 29.5798L22.587 31.0241C22.6393 31.3062 22.8855 31.5034 23.1625 31.5034C23.1979 31.5034 23.2338 31.5002 23.2699 31.4935C23.588 31.4346 23.7983 31.1289 23.7394 30.8107L23.433 29.1568L27.9978 27.4227C28.4207 27.262 28.8893 27.2965 29.2836 27.5172C29.6772 27.7374 29.9499 28.1171 30.0318 28.5587L31.2171 34.9583C31.2989 35.3996 31.1803 35.8506 30.8919 36.1958ZM32.9825 31.6094C32.7092 31.6596 32.5088 31.8949 32.5026 32.1728C32.4965 32.4507 32.6865 32.6946 32.9574 32.7567L37.3199 33.7573L37.2109 34.4885L32.1535 33.5797L31.363 29.3114L35.768 26.7111L36.1349 27.3609L32.4195 29.8445C32.1885 29.999 32.0977 30.2945 32.2022 30.552C32.3067 30.8095 32.5778 30.9582 32.851 30.908L38.6874 29.8359L38.8174 30.5374L32.9825 31.6094Z" fill="#333333"/>
</g>
</g>
</g>
</svg>
