<svg width="40" height="40" viewBox="0 0 40 40" fill="none" xmlns="http://www.w3.org/2000/svg">
<g id="meeting 1" clip-path="url(#clip0_35_582)">
<g id="g2349">
<g id="g2351">
<g id="Clip path group">
<mask id="mask0_35_582" style="mask-type:luminance" maskUnits="userSpaceOnUse" x="0" y="0" width="40" height="40">
<g id="clipPath2357">
<path id="path2355" d="M0 3.8147e-06H40V40H0V3.8147e-06Z" fill="white"/>
</g>
</mask>
<g mask="url(#mask0_35_582)">
<g id="g2353">
<g id="g2359">
<path id="path2361" d="M2.09857 22.0449V18.7703C2.09857 17.5421 3.09427 16.5464 4.32256 16.5464H4.68748" stroke="#333333" stroke-miterlimit="10" stroke-linecap="round" stroke-linejoin="round"/>
</g>
<g id="g2363">
<path id="path2365" d="M35.3906 16.5463H35.6774C36.9057 16.5463 37.9014 17.542 37.9014 18.7703V21.9667" stroke="#333333" stroke-miterlimit="10" stroke-linecap="round" stroke-linejoin="round"/>
</g>
<g id="g2367">
<path id="path2369" d="M4.69156 20.1395V16.4023C4.69156 14.7859 5.72914 13.4119 7.17461 12.9099" stroke="#333333" stroke-miterlimit="10" stroke-linecap="round" stroke-linejoin="round"/>
</g>
<g id="g2371">
<path id="path2373" d="M11.9303 12.9197C13.361 13.4296 14.3853 14.7962 14.3853 16.4022L14.405 17.2621" stroke="#333333" stroke-miterlimit="10" stroke-linecap="round" stroke-linejoin="round"/>
</g>
<g id="g2375">
<path id="path2377" d="M9.54166 13.9379H9.53517C7.88298 13.9379 6.54361 12.5985 6.54361 10.9463V8.40216C6.54361 6.74998 7.88298 5.41068 9.53517 5.41068H9.54166C11.1938 5.41068 12.5332 6.74998 12.5332 8.40216V10.9463C12.5332 12.5985 11.1938 13.9379 9.54166 13.9379Z" stroke="#333333" stroke-miterlimit="10" stroke-linecap="round" stroke-linejoin="round"/>
</g>
<g id="g2379">
<path id="path2381" d="M6.54361 9.67432V8.40854C6.54361 6.75283 7.88447 5.41072 9.53838 5.41072C11.1924 5.41072 12.5332 6.75283 12.5332 8.40854L6.54361 9.67432Z" stroke="#333333" stroke-miterlimit="10" stroke-linecap="round" stroke-linejoin="round"/>
</g>
<g id="g2383">
<path id="path2385" d="M32.1437 5.82733C32.3877 5.10178 33.0733 4.57913 33.881 4.57913C34.8931 4.57913 35.7135 5.3996 35.7135 6.41163V13.0119C35.7135 13.6168 35.4204 14.1532 34.9685 14.4869" stroke="#333333" stroke-miterlimit="10" stroke-linecap="round" stroke-linejoin="round"/>
</g>
<g id="g2387">
<path id="path2389" d="M32.8529 12.9195C34.284 13.4292 35.3084 14.796 35.3084 16.4021V20.1394" stroke="#333333" stroke-miterlimit="10" stroke-linecap="round" stroke-linejoin="round"/>
</g>
<g id="g2391">
<path id="path2393" d="M25.6147 17.2656V16.4022C25.6147 14.7959 26.6394 13.429 28.0708 12.9194" stroke="#333333" stroke-miterlimit="10" stroke-linecap="round" stroke-linejoin="round"/>
</g>
<g id="g2395">
<path id="path2397" d="M30.4648 13.9379H30.4583C28.8061 13.9379 27.4668 12.5985 27.4668 10.9463V8.40216C27.4668 6.74998 28.8061 5.41068 30.4583 5.41068H30.4648C32.117 5.41068 33.4564 6.74998 33.4564 8.40216V10.9463C33.4564 12.5985 32.117 13.9379 30.4648 13.9379Z" stroke="#333333" stroke-miterlimit="10" stroke-linecap="round" stroke-linejoin="round"/>
</g>
<g id="g2399">
<path id="path2401" d="M27.4668 9.67432V8.40854C27.4668 6.75283 28.8076 5.41072 30.4615 5.41072C32.1155 5.41072 33.4564 6.75283 33.4564 8.40854L27.4668 9.67432Z" stroke="#333333" stroke-miterlimit="10" stroke-linecap="round" stroke-linejoin="round"/>
</g>
<g id="g2403">
<path id="path2405" d="M25.5567 33.3606C23.7962 33.5878 21.931 33.7097 20 33.7097C18.065 33.7097 16.196 33.5872 14.4324 33.3592" stroke="#333333" stroke-miterlimit="10" stroke-linecap="round" stroke-linejoin="round"/>
</g>
<g id="g2407">
<path id="path2409" d="M22.8362 16.997C32.2139 17.5911 39.414 21.0861 39.414 25.3089C39.414 27.35 37.7318 29.2211 34.9346 30.6768" stroke="#333333" stroke-miterlimit="10" stroke-linecap="round" stroke-linejoin="round"/>
</g>
<g id="g2411">
<path id="path2413" d="M5.10531 30.6974C2.28414 29.2388 0.585938 27.3596 0.585938 25.3088C0.585938 20.9268 8.33922 17.3284 18.2334 16.9422" stroke="#333333" stroke-miterlimit="10" stroke-linecap="round" stroke-linejoin="round"/>
</g>
<g id="g2415">
<path id="path2417" d="M4.69156 32.4833C4.69156 31.1784 5.36773 30.0316 6.38882 29.3738" stroke="#333333" stroke-miterlimit="10" stroke-linecap="round" stroke-linejoin="round"/>
</g>
<g id="g2419">
<path id="path2421" d="M12.6541 29.3523C13.6941 30.0063 14.3852 31.1641 14.3852 32.4833V34.6847" stroke="#333333" stroke-miterlimit="10" stroke-linecap="round" stroke-linejoin="round"/>
</g>
<g id="g2423">
<path id="path2425" d="M7.2003 32.5542C6.78944 32.0419 6.54358 31.3915 6.54358 30.6838V24.4833C6.54358 22.8311 7.88295 21.4917 9.53514 21.4917H9.54163C11.1938 21.4917 12.5332 22.8311 12.5332 24.4833V30.6838C12.5332 31.877 11.8346 32.907 10.8242 33.3872" stroke="#333333" stroke-miterlimit="10" stroke-linecap="round" stroke-linejoin="round"/>
</g>
<g id="g2427">
<path id="path2429" d="M35.3084 32.6302V32.4833C35.3084 30.8634 34.2663 29.4869 32.8158 28.9877" stroke="#333333" stroke-miterlimit="10" stroke-linecap="round" stroke-linejoin="round"/>
</g>
<g id="g2431">
<path id="path2433" d="M28.1281 28.9805C26.6668 29.4737 25.6148 30.8556 25.6148 32.4832V34.7135" stroke="#333333" stroke-miterlimit="10" stroke-linecap="round" stroke-linejoin="round"/>
</g>
<g id="g2435">
<path id="path2437" d="M30.4648 30.019H30.4583C28.8061 30.019 27.4668 28.6797 27.4668 27.0275V24.4833C27.4668 22.8312 28.8061 21.4919 30.4583 21.4919H30.4648C32.117 21.4919 33.4564 22.8312 33.4564 24.4833V27.0275C33.4564 28.6797 32.117 30.019 30.4648 30.019Z" stroke="#333333" stroke-miterlimit="10" stroke-linecap="round" stroke-linejoin="round"/>
</g>
<g id="g2439">
<path id="path2441" d="M11.2721 39.4141H3.56107C2.75334 39.4141 2.09857 38.7593 2.09857 37.9516V34.8514C2.09857 33.6231 3.09427 32.6274 4.32256 32.6274H9.0481C10.2764 32.6274 11.2721 33.6231 11.2721 34.8514V39.4141Z" stroke="#333333" stroke-miterlimit="10" stroke-linecap="round" stroke-linejoin="round"/>
</g>
<g id="g2443">
<path id="path2445" d="M11.2488 36.6748L14.3852 34.7174C15.1476 34.2187 16.159 34.7655 16.159 35.6765C16.159 36.0632 15.964 36.4239 15.6403 36.6356L11.2488 39.4141" stroke="#333333" stroke-miterlimit="10" stroke-linecap="round" stroke-linejoin="round"/>
</g>
<g id="g2447">
<path id="path2449" d="M28.7279 36.6748L25.5915 34.7174C24.8292 34.2187 23.8178 34.7655 23.8178 35.6765C23.8178 36.0632 24.0128 36.4239 24.3364 36.6356L28.7279 39.4141V36.6748Z" stroke="#333333" stroke-miterlimit="10" stroke-linecap="round" stroke-linejoin="round"/>
</g>
<g id="g2451">
<path id="path2453" d="M37.9014 34.9296V34.8514C37.9014 33.6231 36.9057 32.6274 35.6774 32.6274H30.9519C29.7236 32.6274 28.7279 33.6231 28.7279 34.8514V39.4141H36.4389C37.217 39.4141 37.8514 38.8059 37.897 38.0392" stroke="#333333" stroke-miterlimit="10" stroke-linecap="round" stroke-linejoin="round"/>
</g>
<g id="g2455">
<path id="path2457" d="M25.4721 24.5546C25.4721 22.5235 23.8256 20.877 21.7945 20.877C19.7635 20.877 18.117 22.5235 18.117 24.5546C18.117 26.5856 19.7635 28.2321 21.7945 28.2321C22.0438 28.2321 22.2872 28.207 22.5225 28.1597L24.2206 29.155V27.3171C24.9875 26.6432 25.4721 25.6557 25.4721 24.5546Z" stroke="#333333" stroke-miterlimit="10" stroke-linecap="round" stroke-linejoin="round"/>
</g>
<g id="g2459">
<path id="path2461" d="M20.0469 25.1953C20.801 25.1953 20.8021 24.0234 20.0469 24.0234C19.2928 24.0234 19.2916 25.1953 20.0469 25.1953Z" fill="#333333"/>
</g>
<g id="g2463">
<path id="path2465" d="M21.7945 25.1953C22.5486 25.1953 22.5498 24.0234 21.7945 24.0234C21.0405 24.0234 21.0393 25.1953 21.7945 25.1953Z" fill="#333333"/>
</g>
<g id="g2467">
<path id="path2469" d="M23.5422 25.1953C24.2963 25.1953 24.2975 24.0234 23.5422 24.0234C22.7882 24.0234 22.787 25.1953 23.5422 25.1953Z" fill="#333333"/>
</g>
<g id="g2471">
<path id="path2473" d="M21.4719 7.70874C21.6575 8.14819 21.7601 8.63139 21.7601 9.13842C21.7601 11.1694 20.1136 12.816 18.0826 12.816C17.8333 12.816 17.59 12.7908 17.3546 12.7436L15.6565 13.7389V11.901C14.8897 11.227 14.405 10.2396 14.405 9.13842C14.405 7.10733 16.0515 5.46092 18.0826 5.46092C18.5903 5.46092 19.0741 5.56374 19.514 5.74983" stroke="#333333" stroke-miterlimit="10" stroke-linecap="round" stroke-linejoin="round"/>
</g>
<g id="g2475">
<path id="path2477" d="M16.3349 9.77917C17.089 9.77917 17.0902 8.6073 16.3349 8.6073C15.5808 8.6073 15.5797 9.77917 16.3349 9.77917Z" fill="#333333"/>
</g>
<g id="g2479">
<path id="path2481" d="M18.0826 9.77917C18.8366 9.77917 18.8379 8.6073 18.0826 8.6073C17.3285 8.6073 17.3272 9.77917 18.0826 9.77917Z" fill="#333333"/>
</g>
<g id="g2483">
<path id="path2485" d="M19.8302 9.77917C20.5843 9.77917 20.5855 8.6073 19.8302 8.6073C19.0762 8.6073 19.0749 9.77917 19.8302 9.77917Z" fill="#333333"/>
</g>
<g id="g2487">
<path id="path2489" d="M26.6887 4.26355C26.6887 2.23245 25.0422 0.585968 23.0111 0.585968C20.9801 0.585968 19.3336 2.23245 19.3336 4.26355C19.3336 6.29456 20.9801 7.94104 23.0111 7.94104C23.2604 7.94104 23.5038 7.91597 23.7391 7.8687L25.4372 8.86401V7.02612C26.204 6.35214 26.6887 5.36472 26.6887 4.26355Z" stroke="#333333" stroke-miterlimit="10" stroke-linecap="round" stroke-linejoin="round"/>
</g>
<g id="g2491">
<path id="path2493" d="M22.0534 3.32627L23.969 5.24182" stroke="#333333" stroke-miterlimit="10" stroke-linecap="round" stroke-linejoin="round"/>
</g>
<g id="g2495">
<path id="path2497" d="M23.9689 3.32627L22.0534 5.24182" stroke="#333333" stroke-miterlimit="10" stroke-linecap="round" stroke-linejoin="round"/>
</g>
</g>
</g>
</g>
</g>
</g>
</g>
<defs>
<clipPath id="clip0_35_582">
<rect width="40" height="40" fill="white"/>
</clipPath>
</defs>
</svg>
