<svg width="40" height="40" viewBox="0 0 40 40" fill="none" xmlns="http://www.w3.org/2000/svg">
<g id="no-speak 1" clip-path="url(#clip0_35_664)">
<g id="Group">
<g id="Group_2">
<path id="Vector" d="M34.1421 5.85789C30.3646 2.08039 25.3422 0 20 0C14.6578 0 9.63539 2.08039 5.85789 5.85789C2.08039 9.63539 0 14.6578 0 20C0 25.3422 2.08039 30.3646 5.85789 34.1421C9.63539 37.9196 14.6578 40 20 40C24.1755 40 28.1758 38.7263 31.5685 36.3166C34.8869 33.9598 37.3799 30.7034 38.778 26.8993C38.8891 26.5968 38.7341 26.2615 38.4316 26.1502C38.1291 26.0391 37.7938 26.1944 37.6825 26.4967C36.3661 30.0786 34.0182 33.1453 30.8927 35.3652C27.6985 37.6338 23.9319 38.8329 20 38.8329C14.9695 38.8329 10.2402 36.8739 6.68313 33.3169C3.12602 29.7598 1.16711 25.0305 1.16711 20C1.16711 14.9695 3.12602 10.2402 6.68313 6.6832C10.2402 3.12609 14.9695 1.16711 20 1.16711C25.0305 1.16711 29.7598 3.12609 33.3169 6.68313C36.874 10.2402 38.8329 14.9695 38.8329 19.9999C38.8329 21.34 38.6915 22.6777 38.4126 23.9757C38.3448 24.2908 38.5454 24.6011 38.8605 24.6688C39.1756 24.7365 39.4859 24.5359 39.5536 24.2209C39.8498 22.8425 40 21.4223 40 20C40 14.6578 37.9196 9.63539 34.1421 5.85789Z" fill="#333333"/>
<path id="Vector_2" d="M10.4843 32.1162C10.4968 32.2854 10.5824 32.4409 10.7187 32.5419C13.4195 34.5442 16.6288 35.6025 19.9999 35.6025C28.6032 35.6025 35.6024 28.6032 35.6024 20C35.6024 16.6289 34.5441 13.4196 32.5419 10.7187C32.4408 10.5824 32.2854 10.4967 32.1161 10.4843C31.9473 10.4716 31.7806 10.5336 31.6605 10.6536L27.1052 15.2089C26.1016 14.7019 24.9712 14.4117 23.7756 14.4027C23.7558 14.4025 23.7362 14.4024 23.7164 14.4024C23.6441 14.4024 23.5723 14.4052 23.5004 14.4073C23.4043 14.0966 23.2875 13.7932 23.152 13.4981L28.7385 7.91158C28.8621 7.78799 28.9238 7.61549 28.9066 7.44158C28.8895 7.26768 28.7952 7.11057 28.6498 7.01354C26.0853 5.30205 23.0942 4.39752 20 4.39752C11.3967 4.39752 4.39751 11.3967 4.39751 20C4.39751 23.0942 5.30212 26.0854 7.01352 28.6499C7.11055 28.7953 7.26758 28.8896 7.44157 28.9067C7.46079 28.9086 7.47993 28.9096 7.49899 28.9096C7.6529 28.9096 7.80165 28.8486 7.91157 28.7387L12.58 24.0703V24.7367C12.58 25.076 12.7713 25.3753 13.0792 25.5176C13.1966 25.5719 13.3202 25.5985 13.4427 25.5985C13.6416 25.5985 13.8374 25.5282 13.9974 25.3922L15.449 24.1583C15.7258 24.1889 16.0057 24.2042 16.2831 24.2042C16.357 24.2042 16.4308 24.2029 16.5043 24.2008C16.628 24.5975 16.7841 24.9799 16.9685 25.3457L10.6538 31.6605C10.5337 31.7806 10.4718 31.947 10.4843 32.1162ZM23.8374 16.6499C23.8374 16.2852 23.8113 15.9246 23.7609 15.5698C23.7629 15.5698 23.7649 15.5697 23.7668 15.5698C27.2663 15.5964 30.1093 18.4658 30.1043 21.9662C30.1009 24.3311 28.7999 26.4903 26.7088 27.6012C26.4276 27.7506 26.253 28.0414 26.253 28.3603V29.3802L25.2048 28.4892C25.0488 28.3566 24.85 28.2847 24.6465 28.2847C24.6099 28.2847 24.5731 28.2871 24.5363 28.2918C24.2652 28.3265 23.9895 28.3442 23.7171 28.3442C20.9363 28.3442 18.5652 26.5578 17.6903 24.0724C21.1856 23.4111 23.8374 20.3346 23.8374 16.6499ZM16.283 23.0373C16.0104 23.0373 15.7349 23.0196 15.4635 22.9849C15.2225 22.9538 14.979 23.026 14.7953 23.1823L13.747 24.0734V23.0534C13.747 22.7346 13.5724 22.4439 13.2912 22.2944C12.3522 21.7956 11.5447 21.0628 10.9559 20.1753C10.7777 19.9066 10.4156 19.8335 10.147 20.0115C9.87845 20.1897 9.80516 20.5518 9.98337 20.8203C10.5352 21.6523 11.2502 22.3685 12.076 22.9238L7.60212 27.3977C6.26696 25.1656 5.56462 22.6231 5.56462 20.0001C5.56462 12.0403 12.0403 5.56463 20.0001 5.56463C22.623 5.56463 25.1656 6.26698 27.3977 7.60213L22.5584 12.4414C22.282 12.031 21.9637 11.6444 21.6043 11.2878C20.1644 9.85877 18.2513 9.08166 16.2244 9.09573C12.0853 9.12729 8.72274 12.521 8.72868 16.661C8.72938 17.1538 8.77798 17.647 8.87305 18.1267C8.93571 18.4428 9.24313 18.6481 9.55891 18.5856C9.87501 18.523 10.0806 18.2159 10.0178 17.8997C9.93743 17.494 9.89626 17.0767 9.89571 16.6593C9.89071 13.1589 12.7337 10.2896 16.2332 10.2628C16.2499 10.2627 16.2666 10.2626 16.2833 10.2626C17.9806 10.2626 19.5766 10.9198 20.7822 12.1162C21.9998 13.3246 22.6703 14.9346 22.6703 16.6499C22.6702 20.172 19.8049 23.0373 16.283 23.0373ZM17.5927 26.372C18.9658 28.272 21.1988 29.5113 23.717 29.5113C23.9941 29.5113 24.274 29.4958 24.5511 29.4654L26.0026 30.6992C26.1626 30.8353 26.3584 30.9054 26.5574 30.9054C26.6798 30.9054 26.8035 30.8788 26.9208 30.8246C27.2287 30.6821 27.42 30.3829 27.42 30.0437V28.5424C29.7965 27.2046 31.2674 24.7025 31.2714 21.9679C31.275 19.4517 30.0341 17.2113 28.131 15.8338L31.9962 11.9686C33.5941 14.3465 34.4354 17.109 34.4354 20.0001C34.4354 27.9599 27.9597 34.4356 19.9999 34.4356C17.1088 34.4356 14.3463 33.5942 11.9684 31.9963L17.5927 26.372Z" fill="#333333"/>
</g>
</g>
</g>
<defs>
<clipPath id="clip0_35_664">
<rect width="40" height="40" fill="white"/>
</clipPath>
</defs>
</svg>
