<svg width="40" height="40" viewBox="0 0 40 40" fill="none" xmlns="http://www.w3.org/2000/svg">
<g id="xbox 1">
<g id="Group">
<g id="Group_2">
<path id="Vector" d="M23.8938 28.5828C24.2277 28.5828 24.4984 28.3121 24.4984 27.9782C24.4984 27.6443 24.2277 27.3736 23.8938 27.3736C23.5599 27.3736 23.2892 27.6443 23.2892 27.9782C23.2892 28.3121 23.5599 28.5828 23.8938 28.5828Z" fill="#333333"/>
</g>
</g>
<g id="Group_3">
<g id="Group_4">
<path id="Vector_2" d="M34.236 26.0836C33.1913 26.0836 32.3415 26.9335 32.3415 27.9782C32.3415 29.0228 33.1913 29.8727 34.236 29.8727C35.2807 29.8727 36.1305 29.0228 36.1305 27.9782C36.1305 26.9335 35.2807 26.0836 34.236 26.0836ZM34.236 28.6634C33.8581 28.6634 33.5508 28.356 33.5508 27.9782C33.5508 27.6003 33.8582 27.2929 34.236 27.2929C34.6139 27.2929 34.9212 27.6003 34.9212 27.9782C34.9212 28.356 34.6139 28.6634 34.236 28.6634Z" fill="#333333"/>
</g>
</g>
<g id="Group_5">
<g id="Group_6">
<path id="Vector_3" d="M38.5992 21.6467H31.7986C32.9813 20.3273 33.4745 18.471 33.0176 16.6876L31.4615 10.6155C31.3787 10.2921 31.0494 10.0972 30.7258 10.1799C30.4023 10.2628 30.2072 10.5922 30.2901 10.9157L31.8462 16.9878C32.2953 18.7405 31.5631 20.5845 30.0583 21.5581L26.8357 17.522C26.2031 16.7297 25.2587 16.2753 24.2448 16.2753H20H15.7553C14.7414 16.2753 13.7971 16.7297 13.1644 17.522L9.94182 21.5581C8.43705 20.5845 7.70494 18.7405 8.154 16.9878L10.1292 9.2795C10.4474 8.03762 11.3543 7.02817 12.5551 6.57918L14.2157 5.95832C14.6003 5.81434 15.0367 5.90918 15.3271 6.19957L15.3273 6.19973L16.9828 7.8552C17.4012 8.27364 17.9575 8.50403 18.5492 8.50403H20H21.4509C22.0426 8.50403 22.5989 8.27356 23.0174 7.8552L24.6729 6.19965C24.9634 5.90918 25.3995 5.81449 25.7846 5.95832L27.4451 6.57918C28.4214 6.94426 29.199 7.66676 29.6347 8.61356C29.7366 8.83505 29.9555 8.96567 30.1844 8.96567C30.2689 8.96567 30.3548 8.94786 30.4367 8.9102C30.7401 8.77059 30.8729 8.41153 30.7333 8.10817C30.1633 6.8695 29.146 5.92426 27.8686 5.4466L26.2082 4.82574C25.4655 4.54801 24.6341 4.68496 24.0197 5.16754H15.9806C15.3662 4.68488 14.5348 4.54793 13.7921 4.82574L12.1316 5.4466C10.5606 6.03403 9.37416 7.35465 8.95783 8.97934L6.98259 16.6876C6.52564 18.471 7.01876 20.3274 8.2015 21.6467H1.40094C0.628439 21.6467 0 22.2752 0 23.0476V26.8898V29.0666V32.9088C0 33.6812 0.628439 34.3096 1.40094 34.3096H3.85618V34.7121C3.85618 35.046 4.12688 35.3167 4.46079 35.3167C4.7947 35.3167 5.0654 35.046 5.0654 34.7121V34.3096H34.9346V34.7121C34.9346 35.046 35.2053 35.3167 35.5392 35.3167C35.8731 35.3167 36.1438 35.046 36.1438 34.7121V34.3096H38.5991C39.3716 34.3096 40 33.6812 40 32.9088V23.0476C40.0001 22.2752 39.3716 21.6467 38.5992 21.6467ZM22.7857 6.37676L22.1623 7.00012C21.9723 7.1902 21.7196 7.29481 21.4509 7.29481H20H18.5492C18.2805 7.29481 18.0278 7.1902 17.8378 7.0002L17.2144 6.37676H22.7857ZM38.5992 33.1003H1.40094C1.29532 33.1003 1.2093 33.0144 1.2093 32.9088V29.0666V27.4945H20.4368V28.462H3.1979C2.86399 28.462 2.59329 28.7327 2.59329 29.0666C2.59329 29.4005 2.86399 29.6712 3.1979 29.6712H20.5254C21.1434 29.6712 21.6461 29.1684 21.6461 28.5504V27.406C21.6461 26.788 21.1434 26.2852 20.5254 26.2852H1.2093V23.0477C1.2093 22.942 1.29524 22.8561 1.40094 22.8561H9.99127C9.99744 22.8562 10.0036 22.8573 10.0097 22.8573C10.0168 22.8573 10.0238 22.8562 10.031 22.8561H12.8184C13.1523 22.8561 13.423 22.5854 13.423 22.2515C13.423 21.9176 13.1523 21.6469 12.8184 21.6469H11.4185L14.1093 18.2767C14.5112 17.7734 15.1111 17.4847 15.7553 17.4847H20H24.2448C24.889 17.4847 25.4889 17.7733 25.8908 18.2767L28.5817 21.6469H15.4577C15.1238 21.6469 14.8531 21.9176 14.8531 22.2515C14.8531 22.5854 15.1238 22.8561 15.4577 22.8561H29.969C29.9762 22.8562 29.9832 22.8573 29.9903 22.8573C29.9965 22.8573 30.0026 22.8562 30.0087 22.8561H38.5991C38.7048 22.8561 38.7907 22.942 38.7907 23.0477V32.9088H38.7908C38.7908 33.0144 38.7048 33.1003 38.5992 33.1003Z" fill="#333333"/>
</g>
</g>
<g id="Group_7">
<g id="Group_8">
<path id="Vector_4" d="M13.7088 6.98682C12.5813 6.98682 11.6638 7.90416 11.6638 9.03174C11.6638 10.1593 12.5812 11.0766 13.7088 11.0766C14.8364 11.0766 15.7536 10.1592 15.7536 9.03174C15.7536 7.90416 14.8363 6.98682 13.7088 6.98682ZM13.7088 9.86729C13.248 9.86729 12.8731 9.49245 12.8731 9.03166C12.8731 8.57088 13.248 8.19604 13.7088 8.19604C14.1696 8.19604 14.5444 8.57088 14.5444 9.03166C14.5443 9.49245 14.1695 9.86729 13.7088 9.86729Z" fill="#333333"/>
</g>
</g>
<g id="Group_9">
<g id="Group_10">
<path id="Vector_5" d="M23.6537 10.9671C22.5262 10.9671 21.6088 11.8844 21.6088 13.012C21.6088 14.1396 22.5261 15.0569 23.6537 15.0569C24.7813 15.0569 25.6986 14.1395 25.6986 13.012C25.6986 11.8845 24.7812 10.9671 23.6537 10.9671ZM23.6537 13.8477C23.1929 13.8477 22.8181 13.4728 22.8181 13.012C22.8181 12.5512 23.1929 12.1764 23.6537 12.1764C24.1145 12.1764 24.4893 12.5512 24.4893 13.012C24.4893 13.4728 24.1145 13.8477 23.6537 13.8477Z" fill="#333333"/>
</g>
</g>
<g id="Group_11">
<g id="Group_12">
<path id="Vector_6" d="M26.5649 8.36089C26.8988 8.36089 27.1695 8.0902 27.1695 7.75628C27.1695 7.42237 26.8988 7.15167 26.5649 7.15167C26.231 7.15167 25.9603 7.42237 25.9603 7.75628C25.9603 8.0902 26.231 8.36089 26.5649 8.36089Z" fill="#333333"/>
</g>
</g>
<g id="Group_13">
<g id="Group_14">
<path id="Vector_7" d="M26.5649 11.5718C26.8988 11.5718 27.1695 11.3011 27.1695 10.9672C27.1695 10.6333 26.8988 10.3626 26.5649 10.3626C26.231 10.3626 25.9603 10.6333 25.9603 10.9672C25.9603 11.3011 26.231 11.5718 26.5649 11.5718Z" fill="#333333"/>
</g>
</g>
<g id="Group_15">
<g id="Group_16">
<path id="Vector_8" d="M24.8383 9.99133C25.1722 9.99133 25.4429 9.72063 25.4429 9.38671C25.4429 9.0528 25.1722 8.7821 24.8383 8.7821C24.5044 8.7821 24.2337 9.0528 24.2337 9.38671C24.2337 9.72063 24.5044 9.99133 24.8383 9.99133Z" fill="#333333"/>
</g>
</g>
<g id="Group_17">
<g id="Group_18">
<path id="Vector_9" d="M28.2915 9.99133C28.6254 9.99133 28.8961 9.72063 28.8961 9.38671C28.8961 9.0528 28.6254 8.7821 28.2915 8.7821C27.9576 8.7821 27.6869 9.0528 27.6869 9.38671C27.6869 9.72063 27.9576 9.99133 28.2915 9.99133Z" fill="#333333"/>
</g>
</g>
<g id="Group_19">
<g id="Group_20">
<path id="Vector_10" d="M18.3382 12.4075H17.5026V11.5718C17.5026 11.2379 17.2319 10.9672 16.898 10.9672C16.5641 10.9672 16.2934 11.2379 16.2934 11.5718V12.4075H15.4578C15.1239 12.4075 14.8531 12.6782 14.8531 13.0121C14.8531 13.346 15.1239 13.6167 15.4578 13.6167H16.2934V14.4523C16.2934 14.7862 16.5641 15.0569 16.898 15.0569C17.2319 15.0569 17.5026 14.7862 17.5026 14.4523V13.6167H18.3382C18.6721 13.6167 18.9428 13.346 18.9428 13.0121C18.9428 12.6782 18.6721 12.4075 18.3382 12.4075Z" fill="#333333"/>
</g>
</g>
</g>
</svg>
